{
  "accessors": [
    {
      "bufferView": 2,
      "componentType": 5126,
      "count": 16899,
      "max": [
        2.6838359832763672,
        7.4289045333862305,
        2.7213499546051025
      ],
      "min": [
        -2.6838359832763672,
        -7.5099925994873047,
        -2.7213499546051025
      ],
      "type": "VEC3"
    },
    {
      "bufferView": 2,
      "byteOffset": 202788,
      "componentType": 5126,
      "count": 16899,
      "max": [
        0.99996304512023926,
        0.99902182817459106,
        0.99999696016311646
      ],
      "min": [
        -0.99996918439865112,
        -0.99964195489883423,
        -0.99995237588882446
      ],
      "type": "VEC3"
    },
    {
      "bufferView": 3,
      "componentType": 5126,
      "count": 16899,
      "max": [
        0.99979108572006226,
        0.99999576807022095,
        0.99999433755874634,
        1
      ],
      "min": [
        -0.99986696243286133,
        -0.99999618530273438,
        -0.99927800893783569,
        -1
      ],
      "type": "VEC4"
    },
    {
      "bufferView": 1,
      "componentType": 5126,
      "count": 16899,
      "max": [
        0.99010837078094482,
        0.99901258945465088
      ],
      "min": [
        0.001032191445119679,
        0.001021825592033565
      ],
      "type": "VEC2"
    },
    {
      "bufferView": 0,
      "componentType": 5125,
      "count": 89190,
      "max": [
        16898
      ],
      "min": [
        0
      ],
      "type": "SCALAR"
    }
  ],
  "asset": {
    "extras": {
      "author": "3dhdscan (https://sketchfab.com/3dhdscan)",
      "license": "CC-BY-4.0 (http://creativecommons.org/licenses/by/4.0/)",
      "source": "https://sketchfab.com/models/113c62426b6f4bc9bb4c7b80e50321d5",
      "title": "Statue of the girl"
    },
    "generator": "Sketchfab-3.19.2",
    "version": "2.0"
  },
  "bufferViews": [
    {
      "buffer": 0,
      "byteLength": 356760,
      "byteOffset": 0,
      "name": "floatBufferViews",
      "target": 34963
    },
    {
      "buffer": 0,
      "byteLength": 135192,
      "byteOffset": 356760,
      "byteStride": 8,
      "name": "floatBufferViews",
      "target": 34962
    },
    {
      "buffer": 0,
      "byteLength": 405576,
      "byteOffset": 491952,
      "byteStride": 12,
      "name": "floatBufferViews",
      "target": 34962
    },
    {
      "buffer": 0,
      "byteLength": 270384,
      "byteOffset": 897528,
      "byteStride": 16,
      "name": "floatBufferViews",
      "target": 34962
    }
  ],
  "buffers": [
    {
      "byteLength": 1167912,
      "uri": "scene.bin"
    }
  ],
  "images": [
    {
      "uri": "textures/divka_dum_umeni_baseColor.jpeg"
    },
    {
      "uri": "textures/divka_dum_umeni_normal.jpeg"
    },
    {
      "uri": "textures/divka_dum_umeni_metallicRoughness.png"
    }
  ],
  "materials": [
    {
      "doubleSided": true,
      "name": "divka_dum_umeni",
      "normalTexture": {
        "index": 1,
        "scale": 1,
        "texCoord": 0
      },
      "occlusionTexture": {
        "index": 2,
        "strength": 1,
        "texCoord": 0
      },
      "pbrMetallicRoughness": {
        "baseColorFactor": [
          1,
          1,
          1,
          1
        ],
        "baseColorTexture": {
          "index": 0,
          "texCoord": 0
        },
        "metallicFactor": 0.062690548799999996,
        "roughnessFactor": 0.5165777439
      }
    }
  ],
  "meshes": [
    {
      "name": "divka_dum_umeni_divka_dum_umeni_0",
      "primitives": [
        {
          "attributes": {
            "NORMAL": 1,
            "POSITION": 0,
            "TANGENT": 2,
            "TEXCOORD_0": 3
          },
          "indices": 4,
          "material": 0,
          "mode": 4
        }
      ]
    }
  ],
  "nodes": [
    {
      "children": [
        1
      ],
      "name": "RootNode (gltf orientation matrix)",
      "rotation": [
        -0.70710678118654746,
        -0,
        -0,
        0.70710678118654757
      ]
    },
    {
      "children": [
        2
      ],
      "matrix": [
        1,
        0,
        0,
        0,
        0,
        -1,
        0,
        0,
        0,
        0,
        -1,
        0,
        0,
        -0.17667761445045471,
        0.55092102289199829,
        1
      ],
      "name": "RootNode (model correction matrix)"
    },
    {
      "children": [
        3
      ],
      "matrix": [
        1,
        0,
        0,
        0,
        0,
        -1,
        0,
        0,
        0,
        0,
        -1,
        0,
        0,
        0,
        0,
        1
      ],
      "name": "divka_dum_umeni.FBX"
    },
    {
      "children": [
        4
      ],
      "name": "RootNode"
    },
    {
      "children": [
        5
      ],
      "matrix": [
        0.37720601730719638,
        0.92612937568529974,
        -5.5511151231257827e-17,
        0,
        4.0482399599195418e-08,
        -1.6488198362196727e-08,
        -0.99999999999999911,
        0,
        -0.92612937568529885,
        0.37720601730719622,
        -4.3711387176514904e-08,
        0,
        0.073765754699707031,
        0.088348388671875,
        -0.31600046157836914,
        1
      ],
      "name": "divka_dum_umeni"
    },
    {
      "mesh": 0,
      "name": "divka_dum_umeni_divka_dum_umeni_0"
    }
  ],
  "samplers": [
    {
      "magFilter": 9729,
      "minFilter": 9987,
      "wrapS": 10497,
      "wrapT": 10497
    }
  ],
  "scene": 0,
  "scenes": [
    {
      "name": "OSG_Scene",
      "nodes": [
        0
      ]
    }
  ],
  "textures": [
    {
      "sampler": 0,
      "source": 0
    },
    {
      "sampler": 0,
      "source": 1
    },
    {
      "sampler": 0,
      "source": 2
    }
  ]
}

