{
  "accessors": [
    {
      "bufferView": 2,
      "componentType": 5126,
      "count": 8460,
      "max": [
        130.79643249511719,
        19.649057388305664,
        159.8031005859375
      ],
      "min": [
        -99.302627563476562,
        -179.88790893554688,
        -72.782058715820312
      ],
      "type": "VEC3"
    },
    {
      "bufferView": 2,
      "byteOffset": 101520,
      "componentType": 5126,
      "count": 8460,
      "max": [
        0.99972289800643921,
        0.99997144937515259,
        0.99991327524185181
      ],
      "min": [
        -0.99968355894088745,
        -0.99990195035934448,
        -0.999869704246521
      ],
      "type": "VEC3"
    },
    {
      "bufferView": 3,
      "componentType": 5126,
      "count": 8460,
      "max": [
        0.11764705926179886,
        0.20392157137393951,
        0.54901963472366333,
        1
      ],
      "min": [
        0.10196078568696976,
        0.18823529779911041,
        0.53333336114883423,
        1
      ],
      "type": "VEC4"
    },
    {
      "bufferView": 0,
      "componentType": 5125,
      "count": 50760,
      "max": [
        8459
      ],
      "min": [
        0
      ],
      "type": "SCALAR"
    },
    {
      "bufferView": 2,
      "byteOffset": 203040,
      "componentType": 5126,
      "count": 35849,
      "max": [
        138.56715393066406,
        140.10345458984375,
        159.18443298339844
      ],
      "min": [
        -143.72100830078125,
        -197.72370910644531,
        -88.76885986328125
      ],
      "type": "VEC3"
    },
    {
      "bufferView": 2,
      "byteOffset": 633228,
      "componentType": 5126,
      "count": 35849,
      "max": [
        0.99995177984237671,
        0.99988269805908203,
        0.99993455410003662
      ],
      "min": [
        -0.9999428391456604,
        -0.99983292818069458,
        -0.99999016523361206
      ],
      "type": "VEC3"
    },
    {
      "bufferView": 3,
      "byteOffset": 135360,
      "componentType": 5126,
      "count": 35849,
      "max": [
        0.9999726414680481,
        0.99998652935028076,
        0.99995720386505127,
        1
      ],
      "min": [
        -0.99986284971237183,
        -0.99998974800109863,
        -1,
        -1
      ],
      "type": "VEC4"
    },
    {
      "bufferView": 3,
      "byteOffset": 708944,
      "componentType": 5126,
      "count": 35849,
      "max": [
        1,
        1,
        1,
        1
      ],
      "min": [
        0.15294118225574493,
        0.0078431377187371254,
        0.0039215688593685627,
        1
      ],
      "type": "VEC4"
    },
    {
      "bufferView": 1,
      "componentType": 5126,
      "count": 35849,
      "max": [
        0.998046875,
        0.97633731365203857
      ],
      "min": [
        0.0019531294237822294,
        0.0019531294237822294
      ],
      "type": "VEC2"
    },
    {
      "bufferView": 0,
      "byteOffset": 203040,
      "componentType": 5125,
      "count": 196326,
      "max": [
        35848
      ],
      "min": [
        0
      ],
      "type": "SCALAR"
    },
    {
      "bufferView": 2,
      "byteOffset": 1063416,
      "componentType": 5126,
      "count": 2473,
      "max": [
        46.332656860351562,
        26.566133499145508,
        142.76739501953125
      ],
      "min": [
        -40.129493713378906,
        -45.391128540039062,
        2.7182958126068115
      ],
      "type": "VEC3"
    },
    {
      "bufferView": 2,
      "byteOffset": 1093092,
      "componentType": 5126,
      "count": 2473,
      "max": [
        0.99663704633712769,
        0.99942260980606079,
        0.99655723571777344
      ],
      "min": [
        -0.99754530191421509,
        -0.9997025728225708,
        -0.99901968240737915
      ],
      "type": "VEC3"
    },
    {
      "bufferView": 3,
      "byteOffset": 1282528,
      "componentType": 5126,
      "count": 2473,
      "max": [
        0.85490196943283081,
        0.7137255072593689,
        0.60000002384185791,
        1
      ],
      "min": [
        0.5372549295425415,
        0.32549020648002625,
        0.29411765933036804,
        1
      ],
      "type": "VEC4"
    },
    {
      "bufferView": 0,
      "byteOffset": 988344,
      "componentType": 5125,
      "count": 9942,
      "max": [
        2472
      ],
      "min": [
        0
      ],
      "type": "SCALAR"
    },
    {
      "bufferView": 2,
      "byteOffset": 1122768,
      "componentType": 5126,
      "count": 17131,
      "max": [
        39.810371398925781,
        192.02420043945312,
        97.035140991210938
      ],
      "min": [
        -77.166847229003906,
        -187.525390625,
        -160.16357421875
      ],
      "type": "VEC3"
    },
    {
      "bufferView": 2,
      "byteOffset": 1328340,
      "componentType": 5126,
      "count": 17131,
      "max": [
        0.99994391202926636,
        0.99976474046707153,
        0.99993222951889038
      ],
      "min": [
        -0.9999699592590332,
        -0.99906587600708008,
        -0.99962025880813599
      ],
      "type": "VEC3"
    },
    {
      "bufferView": 3,
      "byteOffset": 1322096,
      "componentType": 5126,
      "count": 17131,
      "max": [
        0.7607843279838562,
        0.58039218187332153,
        0.51372551918029785,
        1
      ],
      "min": [
        0.69019609689712524,
        0.48235294222831726,
        0.4117647111415863,
        1
      ],
      "type": "VEC4"
    },
    {
      "bufferView": 0,
      "byteOffset": 1028112,
      "componentType": 5125,
      "count": 80334,
      "max": [
        17130
      ],
      "min": [
        0
      ],
      "type": "SCALAR"
    },
    {
      "bufferView": 2,
      "byteOffset": 1533912,
      "componentType": 5126,
      "count": 10611,
      "max": [
        69.834442138671875,
        -3.86979079246521,
        100.18225860595703
      ],
      "min": [
        -98.537437438964844,
        -117.69986724853516,
        -54.911094665527344
      ],
      "type": "VEC3"
    },
    {
      "bufferView": 2,
      "byteOffset": 1661244,
      "componentType": 5126,
      "count": 10611,
      "max": [
        0.99952840805053711,
        0.999472975730896,
        0.99957704544067383
      ],
      "min": [
        -0.99988925457000732,
        -0.99989968538284302,
        -0.99980932474136353
      ],
      "type": "VEC3"
    },
    {
      "bufferView": 3,
      "byteOffset": 1596192,
      "componentType": 5126,
      "count": 10611,
      "max": [
        0.88627451658248901,
        0.78431373834609985,
        0.73333334922790527,
        1
      ],
      "min": [
        0.88627451658248901,
        0.78431373834609985,
        0.73333334922790527,
        1
      ],
      "type": "VEC4"
    },
    {
      "bufferView": 0,
      "byteOffset": 1349448,
      "componentType": 5125,
      "count": 33969,
      "max": [
        10610
      ],
      "min": [
        0
      ],
      "type": "SCALAR"
    },
    {
      "bufferView": 2,
      "byteOffset": 1788576,
      "componentType": 5126,
      "count": 468,
      "max": [
        32.146915435791016,
        124.12854766845703,
        39.987201690673828
      ],
      "min": [
        20.890008926391602,
        102.30103302001953,
        -18.430683135986328
      ],
      "type": "VEC3"
    },
    {
      "bufferView": 2,
      "byteOffset": 1794192,
      "componentType": 5126,
      "count": 468,
      "max": [
        0.99694246053695679,
        0.97775107622146606,
        0.99392002820968628
      ],
      "min": [
        -0.99977940320968628,
        -0.99630826711654663,
        -0.82999420166015625
      ],
      "type": "VEC3"
    },
    {
      "bufferView": 3,
      "byteOffset": 1765968,
      "componentType": 5126,
      "count": 468,
      "max": [
        0.98635494709014893,
        0.99504917860031128,
        0.99996089935302734,
        1
      ],
      "min": [
        -0.94481134414672852,
        -0.88467979431152344,
        -0.98762589693069458,
        -1
      ],
      "type": "VEC4"
    },
    {
      "bufferView": 3,
      "byteOffset": 1773456,
      "componentType": 5126,
      "count": 468,
      "max": [
        0.81960785388946533,
        0.72156864404678345,
        0.67843139171600342,
        1
      ],
      "min": [
        0.68627452850341797,
        0.51764708757400513,
        0.44705882668495178,
        1
      ],
      "type": "VEC4"
    },
    {
      "bufferView": 1,
      "byteOffset": 286792,
      "componentType": 5126,
      "count": 468,
      "max": [
        0.99804681539535522,
        0.74864250421524048
      ],
      "min": [
        0.0019531266298145056,
        0.0019531266298145056
      ],
      "type": "VEC2"
    },
    {
      "bufferView": 0,
      "byteOffset": 1485324,
      "componentType": 5125,
      "count": 2652,
      "max": [
        467
      ],
      "min": [
        0
      ],
      "type": "SCALAR"
    },
    {
      "bufferView": 2,
      "byteOffset": 1799808,
      "componentType": 5126,
      "count": 7963,
      "max": [
        102.41600799560547,
        106.13980865478516,
        144.14602661132812
      ],
      "min": [
        -83.415290832519531,
        -11.920868873596191,
        -28.811153411865234
      ],
      "type": "VEC3"
    },
    {
      "bufferView": 2,
      "byteOffset": 1895364,
      "componentType": 5126,
      "count": 7963,
      "max": [
        0.99999648332595825,
        0.99996936321258545,
        0.99954706430435181
      ],
      "min": [
        -0.99998188018798828,
        -0.99983304738998413,
        -0.99986571073532104
      ],
      "type": "VEC3"
    },
    {
      "bufferView": 3,
      "byteOffset": 1780944,
      "componentType": 5126,
      "count": 7963,
      "max": [
        0.69803923368453979,
        0.49803921580314636,
        0.41960784792900085,
        1
      ],
      "min": [
        0.69803923368453979,
        0.49803921580314636,
        0.41960784792900085,
        1
      ],
      "type": "VEC4"
    },
    {
      "bufferView": 0,
      "byteOffset": 1495932,
      "componentType": 5125,
      "count": 47790,
      "max": [
        7962
      ],
      "min": [
        0
      ],
      "type": "SCALAR"
    },
    {
      "bufferView": 2,
      "byteOffset": 1990920,
      "componentType": 5126,
      "count": 3798,
      "max": [
        89.490646362304688,
        71.581001281738281,
        114.14103698730469
      ],
      "min": [
        -4.7115569114685059,
        -12.769142150878906,
        -26.835796356201172
      ],
      "type": "VEC3"
    },
    {
      "bufferView": 2,
      "byteOffset": 2036496,
      "componentType": 5126,
      "count": 3798,
      "max": [
        0.9997706413269043,
        0.99922764301300049,
        0.99695420265197754
      ],
      "min": [
        -0.99988043308258057,
        -0.99997377395629883,
        -0.99762988090515137
      ],
      "type": "VEC3"
    },
    {
      "bufferView": 3,
      "byteOffset": 1908352,
      "componentType": 5126,
      "count": 3798,
      "max": [
        0.80784314870834351,
        0.68627452850341797,
        0.67843139171600342,
        1
      ],
      "min": [
        0.22352941334247589,
        0.0039215688593685627,
        0.0039215688593685627,
        1
      ],
      "type": "VEC4"
    },
    {
      "bufferView": 0,
      "byteOffset": 1687092,
      "componentType": 5125,
      "count": 22968,
      "max": [
        3797
      ],
      "min": [
        0
      ],
      "type": "SCALAR"
    },
    {
      "bufferView": 2,
      "byteOffset": 2082072,
      "componentType": 5126,
      "count": 18880,
      "max": [
        132.05545043945312,
        22.440675735473633,
        159.63737487792969
      ],
      "min": [
        -103.31322479248047,
        -180.81121826171875,
        -66.771949768066406
      ],
      "type": "VEC3"
    },
    {
      "bufferView": 2,
      "byteOffset": 2308632,
      "componentType": 5126,
      "count": 18880,
      "max": [
        0.99993640184402466,
        0.99987125396728516,
        0.99989116191864014
      ],
      "min": [
        -0.99976682662963867,
        -0.99998998641967773,
        -0.99992954730987549
      ],
      "type": "VEC3"
    },
    {
      "bufferView": 3,
      "byteOffset": 1969120,
      "componentType": 5126,
      "count": 18880,
      "max": [
        0.7921568751335144,
        0.023529412224888802,
        0,
        1
      ],
      "min": [
        0.78431373834609985,
        0.015686275437474251,
        0,
        1
      ],
      "type": "VEC4"
    },
    {
      "bufferView": 0,
      "byteOffset": 1778964,
      "componentType": 5125,
      "count": 113256,
      "max": [
        18879
      ],
      "min": [
        0
      ],
      "type": "SCALAR"
    }
  ],
  "asset": {
    "extras": {
      "author": "E-learning UMCG (https://sketchfab.com/eLearningUMCG)",
      "license": "CC-BY-NC-SA-4.0 (http://creativecommons.org/licenses/by-nc-sa/4.0/)",
      "source": "https://sketchfab.com/3d-models/anatomical-heart-codominance-42d07ac1517748ea82bb05b0a362b298",
      "title": "Anatomical heart - codominance"
    },
    "generator": "Sketchfab-6.31.0",
    "version": "2.0"
  },
  "bufferViews": [
    {
      "buffer": 0,
      "byteLength": 2231988,
      "byteOffset": 0,
      "name": "floatBufferViews",
      "target": 34963
    },
    {
      "buffer": 0,
      "byteLength": 290536,
      "byteOffset": 2231988,
      "byteStride": 8,
      "name": "floatBufferViews",
      "target": 34962
    },
    {
      "buffer": 0,
      "byteLength": 2535192,
      "byteOffset": 2522524,
      "byteStride": 12,
      "name": "floatBufferViews",
      "target": 34962
    },
    {
      "buffer": 0,
      "byteLength": 2271200,
      "byteOffset": 5057716,
      "byteStride": 16,
      "name": "floatBufferViews",
      "target": 34962
    }
  ],
  "buffers": [
    {
      "byteLength": 7328916,
      "uri": "scene.bin"
    }
  ],
  "extensionsRequired": [
    "KHR_materials_pbrSpecularGlossiness"
  ],
  "extensionsUsed": [
    "KHR_materials_pbrSpecularGlossiness"
  ],
  "materials": [
    {
      "alphaMode": "BLEND",
      "doubleSided": true,
      "extensions": {
        "KHR_materials_pbrSpecularGlossiness": {
          "diffuseFactor": [
            1,
            1,
            1,
            0.29399999999999998
          ],
          "glossinessFactor": 0,
          "specularFactor": [
            0,
            0,
            0
          ]
        }
      },
      "name": "Veins"
    },
    {
      "alphaMode": "BLEND",
      "doubleSided": true,
      "emissiveFactor": [
        0,
        0,
        0
      ],
      "extensions": {
        "KHR_materials_pbrSpecularGlossiness": {
          "diffuseFactor": [
            1,
            1,
            1,
            0.93999999999999995
          ],
          "glossinessFactor": 0,
          "specularFactor": [
            0.050000000000000003,
            0.050000000000000003,
            0.050000000000000003
          ]
        }
      },
      "name": "Hart_basis"
    },
    {
      "doubleSided": true,
      "emissiveFactor": [
        0.77261598542400012,
        0.67932848829299997,
        0.47887342882199996
      ],
      "extensions": {
        "KHR_materials_pbrSpecularGlossiness": {
          "diffuseFactor": [
            1,
            1,
            1,
            1
          ],
          "glossinessFactor": 0,
          "specularFactor": [
            0,
            0,
            0
          ]
        }
      },
      "name": "Valves"
    },
    {
      "doubleSided": false,
      "emissiveFactor": [
        0,
        0,
        0
      ],
      "extensions": {
        "KHR_materials_pbrSpecularGlossiness": {
          "diffuseFactor": [
            1,
            1,
            1,
            1
          ],
          "glossinessFactor": 0,
          "specularFactor": [
            0,
            0,
            0
          ]
        }
      },
      "name": "Aorta"
    },
    {
      "doubleSided": false,
      "emissiveFactor": [
        0,
        0,
        0
      ],
      "extensions": {
        "KHR_materials_pbrSpecularGlossiness": {
          "diffuseFactor": [
            1,
            1,
            1,
            1
          ],
          "glossinessFactor": 0,
          "specularFactor": [
            0.050000000000000003,
            0.050000000000000003,
            0.050000000000000003
          ]
        }
      },
      "name": "Avvalves"
    },
    {
      "doubleSided": true,
      "emissiveFactor": [
        0,
        0,
        0
      ],
      "extensions": {
        "KHR_materials_pbrSpecularGlossiness": {
          "diffuseFactor": [
            1,
            1,
            1,
            1
          ],
          "glossinessFactor": 0,
          "specularFactor": [
            0.050000000000000003,
            0.050000000000000003,
            0.050000000000000003
          ]
        }
      },
      "name": "Ligament"
    },
    {
      "doubleSided": true,
      "emissiveFactor": [
        0,
        0,
        0
      ],
      "extensions": {
        "KHR_materials_pbrSpecularGlossiness": {
          "diffuseFactor": [
            1,
            1,
            1,
            1
          ],
          "glossinessFactor": 0,
          "specularFactor": [
            0,
            0,
            0
          ]
        }
      },
      "name": "Pulmonary_trunk"
    },
    {
      "alphaMode": "BLEND",
      "doubleSided": true,
      "emissiveFactor": [
        0,
        0,
        0
      ],
      "extensions": {
        "KHR_materials_pbrSpecularGlossiness": {
          "diffuseFactor": [
            0.5,
            0.5,
            0.5,
            0.90400000000000003
          ],
          "glossinessFactor": 0,
          "specularFactor": [
            0.050000000000000003,
            0.050000000000000003,
            0.050000000000000003
          ]
        }
      },
      "name": "Heartear"
    },
    {
      "doubleSided": true,
      "emissiveFactor": [
        1,
        0,
        0
      ],
      "extensions": {
        "KHR_materials_pbrSpecularGlossiness": {
          "diffuseFactor": [
            1,
            1,
            1,
            1
          ],
          "glossinessFactor": 0,
          "specularFactor": [
            0.050000000000000003,
            0.050000000000000003,
            0.050000000000000003
          ]
        }
      },
      "name": "Arteries2"
    }
  ],
  "meshes": [
    {
      "name": "Veins_Veins_0",
      "primitives": [
        {
          "attributes": {
            "COLOR_0": 2,
            "NORMAL": 1,
            "POSITION": 0
          },
          "indices": 3,
          "material": 0,
          "mode": 4
        }
      ]
    },
    {
      "name": "Hart_basis_Hart_basis_0",
      "primitives": [
        {
          "attributes": {
            "COLOR_0": 7,
            "NORMAL": 5,
            "POSITION": 4,
            "TANGENT": 6,
            "TEXCOORD_0": 8
          },
          "indices": 9,
          "material": 1,
          "mode": 4
        }
      ]
    },
    {
      "name": "Valves_Valves_0",
      "primitives": [
        {
          "attributes": {
            "COLOR_0": 12,
            "NORMAL": 11,
            "POSITION": 10
          },
          "indices": 13,
          "material": 2,
          "mode": 4
        }
      ]
    },
    {
      "name": "Aorta_Aorta_0",
      "primitives": [
        {
          "attributes": {
            "COLOR_0": 16,
            "NORMAL": 15,
            "POSITION": 14
          },
          "indices": 17,
          "material": 3,
          "mode": 4
        }
      ]
    },
    {
      "name": "Avvalves_Avvalves_0",
      "primitives": [
        {
          "attributes": {
            "COLOR_0": 20,
            "NORMAL": 19,
            "POSITION": 18
          },
          "indices": 21,
          "material": 4,
          "mode": 4
        }
      ]
    },
    {
      "name": "Ligament_Ligament_0",
      "primitives": [
        {
          "attributes": {
            "COLOR_0": 25,
            "NORMAL": 23,
            "POSITION": 22,
            "TANGENT": 24,
            "TEXCOORD_0": 26
          },
          "indices": 27,
          "material": 5,
          "mode": 4
        }
      ]
    },
    {
      "name": "Pulmonary_trunk_Pulmonary_trunk_0",
      "primitives": [
        {
          "attributes": {
            "COLOR_0": 30,
            "NORMAL": 29,
            "POSITION": 28
          },
          "indices": 31,
          "material": 6,
          "mode": 4
        }
      ]
    },
    {
      "name": "Heartear_Heartear_0",
      "primitives": [
        {
          "attributes": {
            "COLOR_0": 34,
            "NORMAL": 33,
            "POSITION": 32
          },
          "indices": 35,
          "material": 7,
          "mode": 4
        }
      ]
    },
    {
      "name": "Arteries2_Arteries2_0",
      "primitives": [
        {
          "attributes": {
            "COLOR_0": 38,
            "NORMAL": 37,
            "POSITION": 36
          },
          "indices": 39,
          "material": 8,
          "mode": 4
        }
      ]
    }
  ],
  "nodes": [
    {
      "children": [
        1
      ],
      "name": "RootNode (gltf orientation matrix)",
      "rotation": [
        -0.70710678118654746,
        -0,
        -0,
        0.70710678118654757
      ]
    },
    {
      "children": [
        2
      ],
      "matrix": [
        -0.72961658239364624,
        -0.072503760457038879,
        -0.68000209331512451,
        0,
        -0.60521525144577026,
        -0.39450082182884216,
        0.69143593311309814,
        0,
        -0.31839308142662048,
        0.91603070497512817,
        0.24395397305488586,
        0,
        -5.2551159858703613,
        2.6752529144287109,
        -4.0315771102905273,
        1
      ],
      "name": "RootNode (model correction matrix)"
    },
    {
      "children": [
        3
      ],
      "matrix": [
        1,
        0,
        0,
        0,
        0,
        0,
        1,
        0,
        0,
        -1,
        0,
        0,
        0,
        0,
        0,
        1
      ],
      "name": "44bdbdabb00b40adbce4655a9dd2f7c5.fbx"
    },
    {
      "children": [
        4,
        6,
        8,
        10,
        12,
        14,
        16,
        18,
        20,
        22
      ],
      "name": "RootNode"
    },
    {
      "children": [
        5
      ],
      "name": "Veins"
    },
    {
      "mesh": 0,
      "name": "Veins_Veins_0"
    },
    {
      "children": [
        7
      ],
      "name": "Hart_basis"
    },
    {
      "mesh": 1,
      "name": "Hart_basis_Hart_basis_0"
    },
    {
      "children": [
        9
      ],
      "name": "Valves"
    },
    {
      "mesh": 2,
      "name": "Valves_Valves_0"
    },
    {
      "children": [
        11
      ],
      "name": "Aorta"
    },
    {
      "mesh": 3,
      "name": "Aorta_Aorta_0"
    },
    {
      "children": [
        13
      ],
      "name": "Avvalves"
    },
    {
      "mesh": 4,
      "name": "Avvalves_Avvalves_0"
    },
    {
      "children": [
        15
      ],
      "name": "Ligament"
    },
    {
      "mesh": 5,
      "name": "Ligament_Ligament_0"
    },
    {
      "children": [
        17
      ],
      "name": "Pulmonary_trunk"
    },
    {
      "mesh": 6,
      "name": "Pulmonary_trunk_Pulmonary_trunk_0"
    },
    {
      "children": [
        19
      ],
      "name": "Heartear"
    },
    {
      "mesh": 7,
      "name": "Heartear_Heartear_0"
    },
    {
      "children": [
        21
      ],
      "name": "Arteries2"
    },
    {
      "mesh": 8,
      "name": "Arteries2_Arteries2_0"
    },
    {
      "children": [
        23
      ],
      "matrix": [
        -0.048780675988606692,
        -0.21329274694325559,
        -0.97576977292366196,
        0,
        -0.28052759433666519,
        0.94053519989634726,
        -0.19156671571967171,
        0,
        0.9586056094483163,
        0.26438559313498611,
        -0.10571444403147368,
        0,
        14866.0869140625,
        65033.80859375,
        297627.71875,
        1
      ],
      "name": "ZBrushDefault"
    },
    {
      "name": ""
    }
  ],
  "scene": 0,
  "scenes": [
    {
      "name": "OSG_Scene",
      "nodes": [
        0
      ]
    }
  ]
}

