{
  "accessors": [
    {
      "bufferView": 2,
      "componentType": 5126,
      "count": 13534,
      "max": [
        7.1999707221984863,
        8.7466888427734375,
        6.6408123970031738
      ],
      "min": [
        -6.7126116752624512,
        -9.5485649108886719,
        -7.201634407043457
      ],
      "type": "VEC3"
    },
    {
      "bufferView": 2,
      "byteOffset": 162408,
      "componentType": 5126,
      "count": 13534,
      "max": [
        0.9999849796295166,
        0.99977272748947144,
        0.99999827146530151
      ],
      "min": [
        -0.99999666213989258,
        -0.99999910593032837,
        -0.99999892711639404
      ],
      "type": "VEC3"
    },
    {
      "bufferView": 3,
      "componentType": 5126,
      "count": 13534,
      "max": [
        0.9982985258102417,
        0.99999827146530151,
        0.99999344348907471,
        1
      ],
      "min": [
        -0.99990314245223999,
        -0.99999874830245972,
        -0.99998944997787476,
        1
      ],
      "type": "VEC4"
    },
    {
      "bufferView": 1,
      "componentType": 5126,
      "count": 13534,
      "max": [
        0.99917751550674438,
        0.99741977453231812
      ],
      "min": [
        0.00077631592284888029,
        0.00076048431219533086
      ],
      "type": "VEC2"
    },
    {
      "bufferView": 0,
      "componentType": 5125,
      "count": 73158,
      "max": [
        13533
      ],
      "min": [
        0
      ],
      "type": "SCALAR"
    }
  ],
  "asset": {
    "extras": {
      "author": "3dhdscan (https://sketchfab.com/3dhdscan)",
      "license": "CC-BY-4.0 (http://creativecommons.org/licenses/by/4.0/)",
      "source": "https://sketchfab.com/models/90a636233fba4ff4b155f7d13f4e991f",
      "title": "Stone ball on pillar"
    },
    "generator": "Sketchfab-3.19.3",
    "version": "2.0"
  },
  "bufferViews": [
    {
      "buffer": 0,
      "byteLength": 292632,
      "byteOffset": 0,
      "name": "floatBufferViews",
      "target": 34963
    },
    {
      "buffer": 0,
      "byteLength": 108272,
      "byteOffset": 292632,
      "byteStride": 8,
      "name": "floatBufferViews",
      "target": 34962
    },
    {
      "buffer": 0,
      "byteLength": 324816,
      "byteOffset": 400904,
      "byteStride": 12,
      "name": "floatBufferViews",
      "target": 34962
    },
    {
      "buffer": 0,
      "byteLength": 216544,
      "byteOffset": 725720,
      "byteStride": 16,
      "name": "floatBufferViews",
      "target": 34962
    }
  ],
  "buffers": [
    {
      "byteLength": 942264,
      "uri": "scene.bin"
    }
  ],
  "images": [
    {
      "uri": "textures/kamenna_koule_metallicRoughness.png"
    },
    {
      "uri": "textures/kamenna_koule_normal.jpg"
    },
    {
      "uri": "textures/kamenna_koule_baseColor.jpeg"
    }
  ],
  "materials": [
    {
      "doubleSided": true,
      "emissiveFactor": [
        0,
        0,
        0
      ],
      "name": "kamenna_koule",
      "normalTexture": {
        "index": 1,
        "scale": 1,
        "texCoord": 0
      },
      "occlusionTexture": {
        "index": 0,
        "strength": 1,
        "texCoord": 0
      },
      "pbrMetallicRoughness": {
        "baseColorFactor": [
          1,
          1,
          1,
          1
        ],
        "baseColorTexture": {
          "index": 2,
          "texCoord": 0
        },
        "metallicFactor": 0,
        "roughnessFactor": 0.90842690169999996
      }
    }
  ],
  "meshes": [
    {
      "name": "kamenna_koule_kamenna_koule_0",
      "primitives": [
        {
          "attributes": {
            "NORMAL": 1,
            "POSITION": 0,
            "TANGENT": 2,
            "TEXCOORD_0": 3
          },
          "indices": 4,
          "material": 0,
          "mode": 4
        }
      ]
    }
  ],
  "nodes": [
    {
      "children": [
        1
      ],
      "name": "RootNode (gltf orientation matrix)",
      "rotation": [
        -0.70710678118654746,
        -0,
        -0,
        0.70710678118654757
      ]
    },
    {
      "children": [
        2
      ],
      "name": "RootNode (model correction matrix)"
    },
    {
      "children": [
        3
      ],
      "matrix": [
        1,
        0,
        0,
        0,
        0,
        0,
        1,
        0,
        0,
        -1,
        0,
        0,
        0,
        0,
        0,
        1
      ],
      "name": "kamenna_koule.FBX"
    },
    {
      "children": [
        4
      ],
      "name": "RootNode"
    },
    {
      "children": [
        5
      ],
      "matrix": [
        0.99968526536371527,
        -0.0071289300273065575,
        -0.024053036634570382,
        0,
        -0.0071309924667602347,
        -0.99997457414998214,
        2.7928325522496851e-08,
        0,
        -0.024052425264767516,
        0.00017149410350831819,
        -0.99971068386241391,
        0,
        -0.18642675876617432,
        -0.012509346008300781,
        -0.48054122924804688,
        1
      ],
      "name": "kamenna_koule"
    },
    {
      "mesh": 0,
      "name": "kamenna_koule_kamenna_koule_0"
    }
  ],
  "samplers": [
    {
      "magFilter": 9729,
      "minFilter": 9987,
      "wrapS": 10497,
      "wrapT": 10497
    }
  ],
  "scene": 0,
  "scenes": [
    {
      "name": "OSG_Scene",
      "nodes": [
        0
      ]
    }
  ],
  "textures": [
    {
      "sampler": 0,
      "source": 0
    },
    {
      "sampler": 0,
      "source": 1
    },
    {
      "sampler": 0,
      "source": 2
    }
  ]
}

