{
  "accessors": [
    {
      "bufferView": 1,
      "componentType": 5126,
      "count": 1728,
      "max": [
        0.81651097536087036,
        0.3262769877910614,
        0.68211901187896729
      ],
      "min": [
        -0.16965900361537933,
        -0.43650299310684204,
        -2.3577520847320557
      ],
      "type": "VEC3"
    },
    {
      "bufferView": 1,
      "byteOffset": 20736,
      "componentType": 5126,
      "count": 1728,
      "max": [
        0.99937677383422852,
        0.99919962882995605,
        0.99898487329483032
      ],
      "min": [
        -0.99923145771026611,
        -0.9996148943901062,
        -0.9971930980682373
      ],
      "type": "VEC3"
    },
    {
      "bufferView": 0,
      "componentType": 5125,
      "count": 10053,
      "max": [
        1727
      ],
      "min": [
        0
      ],
      "type": "SCALAR"
    },
    {
      "bufferView": 1,
      "byteOffset": 41472,
      "componentType": 5126,
      "count": 2319,
      "max": [
        0.86747199296951294,
        0.30644801259040833,
        0.66328400373458862
      ],
      "min": [
        0.062761001288890839,
        -0.31155401468276978,
        -2.2869200706481934
      ],
      "type": "VEC3"
    },
    {
      "bufferView": 1,
      "byteOffset": 69300,
      "componentType": 5126,
      "count": 2319,
      "max": [
        0.99994421005249023,
        0.9997527003288269,
        0.9988560676574707
      ],
      "min": [
        -0.99992215633392334,
        -0.99983984231948853,
        -0.99712711572647095
      ],
      "type": "VEC3"
    },
    {
      "bufferView": 0,
      "byteOffset": 40212,
      "componentType": 5125,
      "count": 13548,
      "max": [
        2318
      ],
      "min": [
        0
      ],
      "type": "SCALAR"
    },
    {
      "bufferView": 1,
      "byteOffset": 97128,
      "componentType": 5126,
      "count": 1941,
      "max": [
        0.83114999532699585,
        0.30060300230979919,
        0.53442102670669556
      ],
      "min": [
        0.059151001274585724,
        -0.4218980073928833,
        -2.2735919952392578
      ],
      "type": "VEC3"
    },
    {
      "bufferView": 1,
      "byteOffset": 120420,
      "componentType": 5126,
      "count": 1941,
      "max": [
        0.99928689002990723,
        0.99911266565322876,
        0.99994969367980957
      ],
      "min": [
        -0.99943792819976807,
        -0.99912828207015991,
        -0.99879759550094604
      ],
      "type": "VEC3"
    },
    {
      "bufferView": 0,
      "byteOffset": 94404,
      "componentType": 5125,
      "count": 11388,
      "max": [
        1940
      ],
      "min": [
        0
      ],
      "type": "SCALAR"
    }
  ],
  "asset": {
    "extras": {
      "author": "Krogor (https://sketchfab.com/Krogor)",
      "license": "CC-BY-SA-4.0 (http://creativecommons.org/licenses/by-sa/4.0/)",
      "source": "https://sketchfab.com/3d-models/simple-arm-anatomy-874c8868bdb942f1a0dab2f023e16ee3",
      "title": "simple arm anatomy"
    },
    "generator": "Sketchfab-6.33.0",
    "version": "2.0"
  },
  "bufferViews": [
    {
      "buffer": 0,
      "byteLength": 139956,
      "byteOffset": 0,
      "name": "floatBufferViews",
      "target": 34963
    },
    {
      "buffer": 0,
      "byteLength": 143712,
      "byteOffset": 139956,
      "byteStride": 12,
      "name": "floatBufferViews",
      "target": 34962
    }
  ],
  "buffers": [
    {
      "byteLength": 283668,
      "uri": "scene.bin"
    }
  ],
  "materials": [
    {
      "doubleSided": true,
      "emissiveFactor": [
        0,
        0,
        0
      ],
      "name": "Material.004",
      "pbrMetallicRoughness": {
        "baseColorFactor": [
          0.74095565233378957,
          0.70702218926367333,
          0.63471330479470134,
          1
        ],
        "metallicFactor": 0,
        "roughnessFactor": 0.59999999999999998
      }
    },
    {
      "doubleSided": true,
      "name": "None",
      "pbrMetallicRoughness": {
        "baseColorFactor": [
          0.54697293691115467,
          0.23791663014562442,
          0.23791663014562442,
          1
        ],
        "metallicFactor": 0,
        "roughnessFactor": 0.59999999999999998
      }
    }
  ],
  "meshes": [
    {
      "primitives": [
        {
          "attributes": {
            "NORMAL": 1,
            "POSITION": 0
          },
          "indices": 2,
          "material": 0,
          "mode": 4
        }
      ]
    },
    {
      "primitives": [
        {
          "attributes": {
            "NORMAL": 4,
            "POSITION": 3
          },
          "indices": 5,
          "material": 1,
          "mode": 4
        }
      ]
    },
    {
      "primitives": [
        {
          "attributes": {
            "NORMAL": 7,
            "POSITION": 6
          },
          "indices": 8,
          "material": 1,
          "mode": 4
        }
      ]
    }
  ],
  "nodes": [
    {
      "children": [
        1
      ],
      "name": "RootNode (gltf orientation matrix)",
      "rotation": [
        -0.70710678118654746,
        -0,
        -0,
        0.70710678118654757
      ]
    },
    {
      "children": [
        2
      ],
      "name": "RootNode (model correction matrix)"
    },
    {
      "children": [
        3,
        4,
        5,
        6
      ],
      "name": "arm bones and muscles.obj.cleaner.materialmerger.gles"
    },
    {
      "mesh": 0,
      "name": ""
    },
    {
      "name": ""
    },
    {
      "mesh": 1,
      "name": ""
    },
    {
      "mesh": 2,
      "name": ""
    }
  ],
  "scene": 0,
  "scenes": [
    {
      "name": "OSG_Scene",
      "nodes": [
        0
      ]
    }
  ]
}

